<svg width="20.000000" height="20.000000" viewBox="0 0 20 20" fill="none" xmlns="http://www.w3.org/2000/svg" xmlns:xlink="http://www.w3.org/1999/xlink">
	<desc>
			Created with Pixso.
	</desc>
	<defs>
		<linearGradient id="paint_linear_19_208_0" x1="3.125001" y1="2.525392" x2="17.474745" y2="16.875141" gradientUnits="userSpaceOnUse">
			<stop stop-color="#209EFA"/>
			<stop offset="1.000000" stop-color="#0075FF"/>
		</linearGradient>
	</defs>
	<rect width="20.000000" height="20.000000" fill="#FFFFFF" fill-opacity="0"/>
	<path d="M10.2758 12.7885C10.373 12.8346 10.4804 12.8545 10.5877 12.8464C10.6949 12.8383 10.7982 12.8024 10.8874 12.7422L12.8433 11.438C12.9298 11.3803 13.0293 11.3451 13.1328 11.3356C13.2364 11.3261 13.3407 11.3426 13.4362 11.3835L17.0954 12.9517C17.2197 13.0045 17.3235 13.0963 17.3911 13.2132C17.4587 13.3301 17.4865 13.4658 17.4702 13.5999C17.3546 14.5049 16.913 15.3367 16.2282 15.9396C15.5434 16.5425 14.6624 16.8751 13.75 16.8751C10.9321 16.8751 8.22955 15.7557 6.237 13.7632C4.24442 11.7706 3.125 9.06807 3.125 6.25014C3.12506 5.33777 3.45764 4.45671 4.06055 3.77191C4.66342 3.08713 5.49524 2.64555 6.40024 2.52991C6.5343 2.51367 6.67001 2.54146 6.78693 2.60907C6.90384 2.67668 6.99561 2.78046 7.0484 2.90477L8.61798 6.56709C8.65857 6.66183 8.67511 6.76512 8.66614 6.8678C8.65717 6.97046 8.62292 7.06932 8.56647 7.15556L7.26675 9.14148C7.20761 9.2308 7.17264 9.33397 7.16525 9.44086C7.1579 9.54774 7.17838 9.65472 7.2247 9.75133C7.87302 11.0768 8.94739 12.1462 10.2758 12.7885Z" stroke="url(#paint_linear_19_208_0)" stroke-opacity="1.000000" stroke-width="1.400000" stroke-linejoin="round"/>
</svg>
